<?xml version="1.0" encoding="utf-8"?>
<!-- Generator: Adobe Illustrator 17.1.0, SVG Export Plug-In . SVG Version: 6.00 Build 0)  -->
<!DOCTYPE svg PUBLIC "-//W3C//DTD SVG 1.1//EN" "http://www.w3.org/Graphics/SVG/1.1/DTD/svg11.dtd">
<svg version="1.1" id="feather-pen" xmlns="http://www.w3.org/2000/svg" x="0px"
	 y="0px" viewBox="0 0 1009.9766 1009.9527" enable-background="new 0 0 1009.9766 1009.9527" xml:space="preserve">
<g id="feather-pen-label">
	<path fill="#3FD7D7" d="M504.9883,0C226.0957,0,0,226.0957,0,504.9644c0,278.8926,226.0957,504.9883,504.9883,504.9883
		c278.8809,0,504.9883-226.0957,504.9883-504.9883C1009.9766,226.0957,783.8692,0,504.9883,0z"/>
</g>
	<g id="feather-pen-feather-pen">
	<path fill="#FFFFFF" d="M750.2363,230.3863c-65.5966,5.7324-122.7314,16.7089-168.8066,37.9228l-11.0596,64.7861l-0.2021-61.4492
		c-33.7754,14.0635-67.1582,31.7139-92.9727,55.6929l-1.7636,68.0991l-8.9385-60.6982
		c-105.4981,72.831-97.2031,181.6416-89.8135,227.7646c61.7822-87.6094,181.4863-206.8843,284.9707-262.8388
		c0,0-153.9209,112.5771-268.3574,251.2187c0-0.0957,0-0.1309,0.0117-0.2266c-2.6338,3.2178-5.1245,6.3887-7.6865,9.5821
		c-0.0479,0.0594-0.1074,0.1308-0.167,0.2031c-78.48,97.8701-125.7109,183.2734-125.7109,183.2734
		c42.4755-61.3886,88.7529-118.2968,134.4584-169.4013c130.2154-1.1084,213.0455-51.0205,265.4371-112.7202l-103.21-19.4024
		l109.8125,9.6416c23.085-25.814,41.2363-62.0923,51.1758-85.9282l-92.293,10.8096l95.5586-22.6329
		C746.4942,296.9004,750.2363,230.3863,750.2363,230.3863z"/>
		<path fill="#FFFFFF" d="M688.4776,717.5806c0-0.0117,0,0-0.167,0.2266c-3.0508,3.6474-34.4434,40.9736-100.5039,40.9736
		c-28.1983-0.0117-63.0225-6.7812-105.1768-26.374c-43.2617-20.1299-80.5654-27.3155-111.5044-27.3037
		c-70.1255,0-111.1948,48.5292-107.0708,52.5097c4.1235,3.9932,48.4824-31.7246,107.0708-31.7246
		c27.7095,0,61.8662,6.3633,102.7329,25.373c44.4541,20.6777,82.4014,28.3046,113.9483,28.3046
		c79.5039-0.0234,116.4257-48.2079,117.3086-49.5195c3.4316-4.5879,2.5019-11.0947-2.0743-14.5508
		C698.4404,712.0503,691.9219,712.9927,688.4776,717.5806z"/>
</g>
</svg>
